<svg xmlns="http://www.w3.org/2000/svg" version="1.1" xmlns:xlink="http://www.w3.org/1999/xlink" xmlns:svgjs="http://svgjs.com/svgjs" width="1440" height="560" preserveAspectRatio="none" viewBox="0 0 1440 560"><g mask="url(&quot;#SvgjsMask1003&quot;)" fill="none"><rect width="1440" height="560" x="0" y="0" fill="#0e2a47"></rect><path d="M22.29 221.99L87.24 259.49L87.24 334.49L22.29 371.99L-42.66 334.49L-42.66 259.49zM152.2 -3.01L217.15 34.49L217.15 109.49L152.2 146.99L87.24 109.49L87.24 34.49zM476.97 334.49L541.92 371.99L541.92 446.99L476.97 484.49L412.01 446.99L412.01 371.99zM606.87 109.49L671.83 146.99L671.83 221.99L606.87 259.49L541.92 221.99L541.92 146.99zM541.92 221.99L606.87 259.49L606.87 334.49L541.92 371.99L476.97 334.49L476.97 259.49zM801.73 221.99L866.69 259.49L866.69 334.49L801.73 371.99L736.78 334.49L736.78 259.49zM996.6 334.49L1061.55 371.99L1061.55 446.99L996.6 484.49L931.64 446.99L931.64 371.99zM931.64 446.99L996.6 484.49L996.6 559.49L931.64 596.99L866.69 559.49L866.69 484.49zM1386.32 559.49L1451.27 596.99L1451.27 671.99L1386.32 709.49L1321.37 671.99L1321.37 596.99z" stroke="rgba(12, 93, 3, 1)" stroke-width="2"></path><path d="M14.79 221.99 a7.5 7.5 0 1 0 15 0 a7.5 7.5 0 1 0 -15 0zM79.74 259.49 a7.5 7.5 0 1 0 15 0 a7.5 7.5 0 1 0 -15 0zM79.74 334.49 a7.5 7.5 0 1 0 15 0 a7.5 7.5 0 1 0 -15 0zM14.79 371.99 a7.5 7.5 0 1 0 15 0 a7.5 7.5 0 1 0 -15 0zM-50.16 334.49 a7.5 7.5 0 1 0 15 0 a7.5 7.5 0 1 0 -15 0zM-50.16 259.49 a7.5 7.5 0 1 0 15 0 a7.5 7.5 0 1 0 -15 0zM144.7 -3.01 a7.5 7.5 0 1 0 15 0 a7.5 7.5 0 1 0 -15 0zM209.65 34.49 a7.5 7.5 0 1 0 15 0 a7.5 7.5 0 1 0 -15 0zM209.65 109.49 a7.5 7.5 0 1 0 15 0 a7.5 7.5 0 1 0 -15 0zM144.7 146.99 a7.5 7.5 0 1 0 15 0 a7.5 7.5 0 1 0 -15 0zM79.74 109.49 a7.5 7.5 0 1 0 15 0 a7.5 7.5 0 1 0 -15 0zM79.74 34.49 a7.5 7.5 0 1 0 15 0 a7.5 7.5 0 1 0 -15 0zM469.47 334.49 a7.5 7.5 0 1 0 15 0 a7.5 7.5 0 1 0 -15 0zM534.42 371.99 a7.5 7.5 0 1 0 15 0 a7.5 7.5 0 1 0 -15 0zM534.42 446.99 a7.5 7.5 0 1 0 15 0 a7.5 7.5 0 1 0 -15 0zM469.47 484.49 a7.5 7.5 0 1 0 15 0 a7.5 7.5 0 1 0 -15 0zM404.51 446.99 a7.5 7.5 0 1 0 15 0 a7.5 7.5 0 1 0 -15 0zM404.51 371.99 a7.5 7.5 0 1 0 15 0 a7.5 7.5 0 1 0 -15 0zM599.37 109.49 a7.5 7.5 0 1 0 15 0 a7.5 7.5 0 1 0 -15 0zM664.33 146.99 a7.5 7.5 0 1 0 15 0 a7.5 7.5 0 1 0 -15 0zM664.33 221.99 a7.5 7.5 0 1 0 15 0 a7.5 7.5 0 1 0 -15 0zM599.37 259.49 a7.5 7.5 0 1 0 15 0 a7.5 7.5 0 1 0 -15 0zM534.42 221.99 a7.5 7.5 0 1 0 15 0 a7.5 7.5 0 1 0 -15 0zM534.42 146.99 a7.5 7.5 0 1 0 15 0 a7.5 7.5 0 1 0 -15 0zM599.37 334.49 a7.5 7.5 0 1 0 15 0 a7.5 7.5 0 1 0 -15 0zM469.47 259.49 a7.5 7.5 0 1 0 15 0 a7.5 7.5 0 1 0 -15 0zM794.23 221.99 a7.5 7.5 0 1 0 15 0 a7.5 7.5 0 1 0 -15 0zM859.19 259.49 a7.5 7.5 0 1 0 15 0 a7.5 7.5 0 1 0 -15 0zM859.19 334.49 a7.5 7.5 0 1 0 15 0 a7.5 7.5 0 1 0 -15 0zM794.23 371.99 a7.5 7.5 0 1 0 15 0 a7.5 7.5 0 1 0 -15 0zM729.28 334.49 a7.5 7.5 0 1 0 15 0 a7.5 7.5 0 1 0 -15 0zM729.28 259.49 a7.5 7.5 0 1 0 15 0 a7.5 7.5 0 1 0 -15 0zM989.1 334.49 a7.5 7.5 0 1 0 15 0 a7.5 7.5 0 1 0 -15 0zM1054.05 371.99 a7.5 7.5 0 1 0 15 0 a7.5 7.5 0 1 0 -15 0zM1054.05 446.99 a7.5 7.5 0 1 0 15 0 a7.5 7.5 0 1 0 -15 0zM989.1 484.49 a7.5 7.5 0 1 0 15 0 a7.5 7.5 0 1 0 -15 0zM924.14 446.99 a7.5 7.5 0 1 0 15 0 a7.5 7.5 0 1 0 -15 0zM924.14 371.99 a7.5 7.5 0 1 0 15 0 a7.5 7.5 0 1 0 -15 0zM989.1 559.49 a7.5 7.5 0 1 0 15 0 a7.5 7.5 0 1 0 -15 0zM924.14 596.99 a7.5 7.5 0 1 0 15 0 a7.5 7.5 0 1 0 -15 0zM859.19 559.49 a7.5 7.5 0 1 0 15 0 a7.5 7.5 0 1 0 -15 0zM859.19 484.49 a7.5 7.5 0 1 0 15 0 a7.5 7.5 0 1 0 -15 0zM1378.82 559.49 a7.5 7.5 0 1 0 15 0 a7.5 7.5 0 1 0 -15 0zM1443.77 596.99 a7.5 7.5 0 1 0 15 0 a7.5 7.5 0 1 0 -15 0zM1443.77 671.99 a7.5 7.5 0 1 0 15 0 a7.5 7.5 0 1 0 -15 0zM1378.82 709.49 a7.5 7.5 0 1 0 15 0 a7.5 7.5 0 1 0 -15 0zM1313.87 671.99 a7.5 7.5 0 1 0 15 0 a7.5 7.5 0 1 0 -15 0zM1313.87 596.99 a7.5 7.5 0 1 0 15 0 a7.5 7.5 0 1 0 -15 0z" fill="rgba(12, 93, 3, 1)"></path><path d="M52.74 179.27L96.05 204.27L96.05 254.27L52.74 279.27L9.44 254.27L9.44 204.27zM96.05 -45.73L139.35 -20.73L139.35 29.27L96.05 54.27L52.74 29.27L52.74 -20.73zM139.35 329.27L182.65 354.27L182.65 404.27L139.35 429.27L96.05 404.27L96.05 354.27zM96.05 404.27L139.35 429.27L139.35 479.27L96.05 504.27L52.74 479.27L52.74 429.27zM139.35 479.27L182.65 504.27L182.65 554.27L139.35 579.27L96.05 554.27L96.05 504.27zM182.65 254.27L225.95 279.27L225.95 329.27L182.65 354.27L139.35 329.27L139.35 279.27zM269.25 254.27L312.56 279.27L312.56 329.27L269.25 354.27L225.95 329.27L225.95 279.27zM355.86 254.27L399.16 279.27L399.16 329.27L355.86 354.27L312.56 329.27L312.56 279.27zM399.16 479.27L442.47 504.27L442.47 554.27L399.16 579.27L355.86 554.27L355.86 504.27zM485.77 329.27L529.07 354.27L529.07 404.27L485.77 429.27L442.47 404.27L442.47 354.27zM572.37 29.27L615.68 54.27L615.68 104.27L572.37 129.27L529.07 104.27L529.07 54.27zM529.07 254.27L572.37 279.27L572.37 329.27L529.07 354.27L485.77 329.27L485.77 279.27zM658.98 179.27L702.28 204.27L702.28 254.27L658.98 279.27L615.68 254.27L615.68 204.27zM615.68 254.27L658.98 279.27L658.98 329.27L615.68 354.27L572.37 329.27L572.37 279.27zM702.28 -45.73L745.58 -20.73L745.58 29.27L702.28 54.27L658.98 29.27L658.98 -20.73zM702.28 254.27L745.58 279.27L745.58 329.27L702.28 354.27L658.98 329.27L658.98 279.27zM745.58 329.27L788.89 354.27L788.89 404.27L745.58 429.27L702.28 404.27L702.28 354.27zM702.28 404.27L745.58 429.27L745.58 479.27L702.28 504.27L658.98 479.27L658.98 429.27zM832.19 29.27L875.49 54.27L875.49 104.27L832.19 129.27L788.89 104.27L788.89 54.27zM788.89 104.27L832.19 129.27L832.19 179.27L788.89 204.27L745.58 179.27L745.58 129.27zM832.19 479.27L875.49 504.27L875.49 554.27L832.19 579.27L788.89 554.27L788.89 504.27zM962.1 -45.73L1005.4 -20.73L1005.4 29.27L962.1 54.27L918.79 29.27L918.79 -20.73zM962.1 104.27L1005.4 129.27L1005.4 179.27L962.1 204.27L918.79 179.27L918.79 129.27zM962.1 254.27L1005.4 279.27L1005.4 329.27L962.1 354.27L918.79 329.27L918.79 279.27zM1005.4 479.27L1048.7 504.27L1048.7 554.27L1005.4 579.27L962.1 554.27L962.1 504.27zM1092 29.27L1135.31 54.27L1135.31 104.27L1092 129.27L1048.7 104.27L1048.7 54.27zM1048.7 104.27L1092 129.27L1092 179.27L1048.7 204.27L1005.4 179.27L1005.4 129.27zM1092 179.27L1135.31 204.27L1135.31 254.27L1092 279.27L1048.7 254.27L1048.7 204.27zM1092 479.27L1135.31 504.27L1135.31 554.27L1092 579.27L1048.7 554.27L1048.7 504.27zM1135.31 104.27L1178.61 129.27L1178.61 179.27L1135.31 204.27L1092 179.27L1092 129.27zM1178.61 179.27L1221.91 204.27L1221.91 254.27L1178.61 279.27L1135.31 254.27L1135.31 204.27zM1135.31 404.27L1178.61 429.27L1178.61 479.27L1135.31 504.27L1092 479.27L1092 429.27zM1178.61 479.27L1221.91 504.27L1221.91 554.27L1178.61 579.27L1135.31 554.27L1135.31 504.27zM1265.21 479.27L1308.52 504.27L1308.52 554.27L1265.21 579.27L1221.91 554.27L1221.91 504.27zM1308.52 -45.73L1351.82 -20.73L1351.82 29.27L1308.52 54.27L1265.21 29.27L1265.21 -20.73zM1351.82 29.27L1395.12 54.27L1395.12 104.27L1351.82 129.27L1308.52 104.27L1308.52 54.27zM1395.12 254.27L1438.42 279.27L1438.42 329.27L1395.12 354.27L1351.82 329.27L1351.82 279.27z" stroke="rgba(88, 211, 8, 0.93)" stroke-width="2"></path></g><defs><mask id="SvgjsMask1003"><rect width="1440" height="560" fill="#ffffff"></rect></mask></defs></svg>